# xmcd
#
# Track frame offsets:
#	189
#	21398
#	41179
#	60438
#	72800
#	92584
#	113819
#	130822
#	151701
#	168360
#	190535
#	208422
#
# Disc length: 3012 seconds
#
# Revision: 1
# Processed by: cddbd v1.5.1PL0 Copyright (c) Steve Scherf et al.
# Submitted via: audiograbber 1.83.01
#
DISCID=9d0bc20c
DTITLE=Various Artist - Love Romance 1
DYEAR=2001
DGENRE=Pop
TTITLE0=The Cover Girls - Wishing On A Star
TTITLE1=Close II You - Baby Don't Go
TTITLE2=Earth Wind and Fire - After The Love Has Gone
TTITLE3=Aretha Franklin - Walk On By
TTITLE4=Ten Sharp - You
TTITLE5=Santana - I Love You Too Much
TTITLE6=Judy Tzuke - Stay With Me Till Dawn
TTITLE7=The O' Jays - Now That We Found Love
TTITLE8=The Jacksons - Show You The Way To Go
TTITLE9=Regina Belle - Baby Come To Me
TTITLE10=Cock Robin - When Your Heart Is Weak
TTITLE11=Fleetwood Mac - Need You Love So Bad
EXTD=
EXTT0=
EXTT1=
EXTT2=
EXTT3=
EXTT4=
EXTT5=
EXTT6=
EXTT7=
EXTT8=
EXTT9=
EXTT10=
EXTT11=
PLAYORDER=
